<svg width="48" height="48" viewBox="0 0 48 48" fill="none" xmlns="http://www.w3.org/2000/svg">
<g clip-path="url(#clip0_871_1152)">
<path d="M24 32C19.588 32 16 28.412 16 24C16 19.588 19.588 16 24 16C28.412 16 32 19.588 32 24C32 28.412 28.412 32 24 32ZM24 20C21.794 20 20 21.794 20 24C20 26.206 21.794 28 24 28C26.206 28 28 26.206 28 24C28 21.794 26.206 20 24 20ZM10 14C8.89601 14 8.00001 14.896 8.00001 16C8.00001 17.104 8.89601 18 10 18C11.104 18 12 17.104 12 16C12 14.896 11.104 14 10 14ZM36 20C36 21.104 36.896 22 38 22C39.104 22 40 21.104 40 20C40 18.896 39.104 18 38 18C36.896 18 36 18.896 36 20ZM10 26C8.89601 26 8.00001 26.896 8.00001 28C8.00001 29.104 8.89601 30 10 30C11.104 30 12 29.104 12 28C12 26.896 11.104 26 10 26ZM36 32C36 33.104 36.896 34 38 34C39.104 34 40 33.104 40 32C40 30.896 39.104 30 38 30C36.896 30 36 30.896 36 32ZM33.998 42C30.73 42 27.802 41.202 24.972 40.43C22.276 39.694 19.732 39 17 39C13.858 39 11.876 39.202 10.162 39.698C7.75001 40.392 5.21401 39.924 3.20201 38.41C1.16801 36.88 0.00201416 34.544 0.00201416 32V16.904C0.00201416 12.778 2.60001 9.016 6.46801 7.542C9.15001 6.518 11.686 6 14.004 6C17.272 6 20.198 6.798 23.03 7.57C25.726 8.306 28.27 9 31.002 9C34.142 9 36.126 8.798 37.84 8.302C40.256 7.608 42.792 8.076 44.802 9.59C46.836 11.12 48.002 13.456 48.002 16V31.096C48.002 35.222 45.402 38.984 41.534 40.458C38.852 41.482 36.318 42 33.998 42ZM17 35C20.268 35 23.194 35.798 26.026 36.57C28.722 37.306 31.266 38 33.998 38C35.826 38 37.882 37.57 40.11 36.72C42.476 35.82 44.002 33.612 44.002 31.096V16C44.002 14.726 43.416 13.554 42.396 12.788C41.398 12.038 40.144 11.802 38.946 12.146C36.844 12.752 34.542 13 30.998 13C27.73 13 24.804 12.202 21.972 11.43C19.276 10.694 16.732 10 14 10C12.17 10 10.116 10.43 7.88801 11.28C5.52201 12.18 3.99601 14.388 3.99601 16.904V32C3.99601 33.274 4.58201 34.446 5.60201 35.212C6.60001 35.962 7.85401 36.198 9.05001 35.852C11.152 35.246 13.456 34.998 16.998 34.998L17 35Z" fill="#282828"/>
</g>
<defs>
<clipPath id="clip0_871_1152">
<rect width="48" height="48" fill="white"/>
</clipPath>
</defs>
</svg>
