<svg width="36" height="37" viewBox="0 0 36 37" fill="none" xmlns="http://www.w3.org/2000/svg">
<g clip-path="url(#clip0_870_7697)">
<path d="M21.972 8.7395C23.2815 7.688 24.63 6.275 25.314 4.556C25.671 3.659 25.5555 2.6405 25.0065 1.832C24.441 0.998 23.5035 0.5 22.5 0.5H13.5C12.4965 0.5 11.559 0.998 10.9935 1.832C10.4445 2.6405 10.3305 3.659 10.686 4.556C11.37 6.2735 12.7185 7.688 14.028 8.7395C7.044 11.3315 1.5 20.2385 1.5 27.5C1.5 32.4635 5.5365 36.5 10.5 36.5H25.5C30.4635 36.5 34.5 32.4635 34.5 27.5C34.5 20.2385 28.956 11.3315 21.972 8.7395ZM22.5255 3.4475C21.7515 5.393 19.3845 7.037 17.997 7.8125C16.6125 7.043 14.2545 5.4125 13.4985 3.5L22.5255 3.4475ZM25.4985 33.5H10.5C7.191 33.5 4.5 30.809 4.5 27.5C4.5 19.6355 11.565 11 18 11C24.435 11 31.5 19.6355 31.5 27.5C31.5 30.809 28.8075 33.5 25.4985 33.5ZM17.9985 33.5C17.1705 33.5 16.4985 32.828 16.4985 32V30.5H16.0965C14.4945 30.5 13.002 29.639 12.1995 28.2515C11.7855 27.5345 12.03 26.618 12.747 26.2025C13.461 25.787 14.3805 26.0315 14.796 26.75C15.063 27.212 15.5625 27.5 16.0965 27.5H19.4985C20.325 27.5 20.9985 26.8265 20.9985 26C20.9985 25.433 20.592 24.953 20.0325 24.86L15.4695 24.0995C13.458 23.765 11.997 22.04 11.997 20C11.997 17.519 14.016 15.5 16.497 15.5V14C16.497 13.172 17.169 12.5 17.997 12.5C18.825 12.5 19.497 13.172 19.497 14V15.5H19.899C21.4995 15.5 22.9935 16.3625 23.796 17.75C24.21 18.467 23.9655 19.3835 23.2485 19.799C22.533 20.2145 21.615 19.97 21.1995 19.2515C20.931 18.788 20.433 18.5015 19.899 18.5015H16.497C15.6705 18.5015 14.997 19.175 14.997 20.0015C14.997 20.5685 15.4035 21.0485 15.963 21.1415L20.526 21.902C22.5375 22.2365 23.9985 23.9615 23.9985 26.0015C23.9985 28.4825 21.9795 30.5015 19.4985 30.5015V32.0015C19.4985 32.8295 18.8265 33.5 17.9985 33.5Z" fill="#CE1449"/>
</g>
<defs>
<clipPath id="clip0_870_7697">
<rect width="36" height="36" fill="white" transform="translate(0 0.5)"/>
</clipPath>
</defs>
</svg>
