<svg width="48" height="48" viewBox="0 0 48 48" fill="none" xmlns="http://www.w3.org/2000/svg">
<g clip-path="url(#clip0_871_48)">
<path d="M37.162 4.27999L24.632 0.101993C24.2217 -0.0346488 23.7783 -0.0346488 23.368 0.101993L10.838 4.27999C8.84581 4.94176 7.11283 6.21451 5.88529 7.91741C4.65775 9.62032 3.99808 11.6668 4 13.766V24C4 39.126 22.4 47.48 23.188 47.828C23.4436 47.9416 23.7203 48.0003 24 48.0003C24.2797 48.0003 24.5564 47.9416 24.812 47.828C25.6 47.48 44 39.126 44 24V13.766C44.0019 11.6668 43.3423 9.62032 42.1147 7.91741C40.8872 6.21451 39.1542 4.94176 37.162 4.27999ZM40 24C40 34.91 27.362 42.066 24 43.778C20.634 42.072 8 34.938 8 24V13.766C8.00012 12.5065 8.39655 11.2791 9.13313 10.2575C9.86972 9.23589 10.9091 8.47198 12.104 8.07399L24 4.10799L35.896 8.07399C37.0909 8.47198 38.1303 9.23589 38.8669 10.2575C39.6035 11.2791 39.9999 12.5065 40 13.766V24Z" fill="#282828"/>
<path d="M30.6 16.6002L22.224 25.0002L17.736 20.3201C17.5559 20.1232 17.3382 19.9643 17.0957 19.8528C16.8533 19.7414 16.5909 19.6795 16.3242 19.671C16.0575 19.6624 15.7917 19.7074 15.5426 19.8031C15.2935 19.8989 15.0661 20.0435 14.8737 20.2285C14.6814 20.4135 14.528 20.6351 14.4227 20.8803C14.3173 21.1255 14.2621 21.3893 14.2602 21.6562C14.2584 21.923 14.31 22.1876 14.4119 22.4342C14.5139 22.6808 14.6642 22.9045 14.854 23.0921L19.466 27.8922C19.8099 28.2637 20.2257 28.5615 20.688 28.7678C21.1504 28.9741 21.6498 29.0844 22.156 29.0922H22.222C22.7181 29.0938 23.2096 28.9969 23.6679 28.807C24.1263 28.6171 24.5424 28.3381 24.892 27.9862L33.436 19.4421C33.6226 19.2559 33.7707 19.0348 33.8719 18.7913C33.973 18.5479 34.0252 18.2869 34.0255 18.0233C34.0258 17.7596 33.9741 17.4985 33.8735 17.2549C33.7728 17.0112 33.6252 16.7898 33.439 16.6032C33.2528 16.4165 33.0316 16.2684 32.7882 16.1673C32.5447 16.0662 32.2837 16.014 32.0201 16.0137C31.7565 16.0134 31.4954 16.065 31.2517 16.1657C31.0081 16.2663 30.7866 16.4139 30.6 16.6002Z" fill="#282828"/>
</g>
<defs>
<clipPath id="clip0_871_48">
<rect width="48" height="48" fill="white"/>
</clipPath>
</defs>
</svg>
