<svg width="30" height="12" viewBox="0 0 30 12" fill="none" xmlns="http://www.w3.org/2000/svg">
<g clip-path="url(#clip0_569_3496)">
<path d="M14.027 5.86496V9.38696H12.927V0.693963H15.845C16.194 0.686435 16.5409 0.749424 16.865 0.879155C17.1891 1.00889 17.4836 1.20269 17.731 1.44896C18.2129 1.90661 18.4957 2.53516 18.5187 3.19931C18.5417 3.86345 18.303 4.51008 17.854 4.99996L17.731 5.12396C17.218 5.61696 16.59 5.86596 15.845 5.86596H14.027V5.86496ZM14.027 1.76096V4.79796H15.872C16.0748 4.80421 16.2766 4.76723 16.464 4.68947C16.6515 4.61171 16.8202 4.49495 16.959 4.34696C17.2352 4.05395 17.3863 3.66471 17.3799 3.26206C17.3736 2.8594 17.2103 2.47512 16.925 2.19096C16.6445 1.91431 16.266 1.75974 15.872 1.76096H14.027ZM21.059 3.24396C21.872 3.24396 22.515 3.46596 22.986 3.90296C23.458 4.33896 23.69 4.94896 23.69 5.71896V9.38596H22.638V8.55996H22.59C22.132 9.23996 21.531 9.57896 20.772 9.57896C20.13 9.57896 19.583 9.38496 19.153 8.99696C18.9431 8.818 18.7757 8.5944 18.6633 8.3425C18.5508 8.09059 18.4961 7.81674 18.503 7.54096C18.503 6.92396 18.736 6.43896 19.194 6.07096C19.651 5.70396 20.266 5.52396 21.032 5.52396C21.688 5.52396 22.221 5.64896 22.645 5.88396V5.62996C22.645 5.24896 22.481 4.88796 22.194 4.63896C21.9033 4.37621 21.5258 4.23018 21.134 4.22896C20.519 4.22896 20.034 4.49296 19.679 5.01896L18.708 4.40296C19.228 3.63296 20.014 3.24396 21.059 3.24396ZM19.638 7.56296C19.638 7.85296 19.774 8.12396 20 8.29096C20.246 8.48496 20.547 8.58896 20.854 8.58096C21.319 8.58096 21.763 8.39496 22.091 8.06096C22.453 7.71496 22.638 7.30596 22.638 6.83496C22.296 6.55796 21.818 6.41896 21.203 6.42496C20.759 6.42496 20.383 6.53696 20.082 6.75196C19.788 6.96696 19.638 7.23696 19.638 7.56196V7.56296Z" fill="#3C4043"/>
<path fill-rule="evenodd" clip-rule="evenodd" d="M29.731 3.43896L26.054 12H24.92L26.286 9.0054L23.874 3.43896H25.07L26.813 7.70911H26.833L28.535 3.43896H29.731Z" fill="#3C4043"/>
<path fill-rule="evenodd" clip-rule="evenodd" d="M10.047 5.10209C10.047 4.76209 10.02 4.42309 9.965 4.09009H5.325V6.01009H7.983C7.92946 6.31641 7.81473 6.60879 7.64567 6.86978C7.4766 7.13077 7.25667 7.355 6.999 7.52909V8.77609H8.585C9.514 7.91009 10.047 6.62709 10.047 5.10209Z" fill="#4285F4"/>
<path fill-rule="evenodd" clip-rule="evenodd" d="M5.325 9.983C6.65 9.983 7.771 9.539 8.584 8.777L6.999 7.529C6.555 7.834 5.987 8.007 5.325 8.007C4.04 8.007 2.953 7.127 2.564 5.948H0.929999V7.238C1.33375 8.05985 1.95927 8.75242 2.7359 9.23748C3.51254 9.72255 4.40933 9.98077 5.325 9.983Z" fill="#34A853"/>
<path fill-rule="evenodd" clip-rule="evenodd" d="M2.564 5.94795C2.35906 5.32675 2.35906 4.65615 2.564 4.03495V2.75195H0.931C0.583579 3.44737 0.402718 4.21408 0.402718 4.99145C0.402718 5.76882 0.583579 6.53554 0.931 7.23095L2.564 5.94795Z" fill="#FBBC04"/>
<path fill-rule="evenodd" clip-rule="evenodd" d="M5.325 1.97599C5.6733 1.96971 6.01939 2.03268 6.34315 2.16126C6.66691 2.28984 6.96191 2.48146 7.211 2.72499L8.618 1.29699C7.73068 0.453006 6.54954 -0.0122059 5.325 -1.02787e-05C4.40874 0.00355053 3.51172 0.263109 2.73514 0.749378C1.95855 1.23565 1.33333 1.92927 0.929999 2.75199L2.564 4.04199C2.953 2.85599 4.04 1.97599 5.325 1.97599Z" fill="#EA4335"/>
</g>
<defs>
<clipPath id="clip0_569_3496">
<rect width="30" height="12" fill="white"/>
</clipPath>
</defs>
</svg>
