<svg width="17" height="10" viewBox="0 0 17 10" fill="none" xmlns="http://www.w3.org/2000/svg">
<path d="M5.85921 1.02319H10.8192V8.54544H5.85921V1.02319Z" fill="#F26122"/>
<path d="M8.31758 8.54588C7.41887 9.20769 6.29914 9.56872 5.14454 9.56897C4.46259 9.56344 3.78853 9.43528 3.16086 9.1918C2.5332 8.94833 1.96423 8.59431 1.48649 8.14998C1.00875 7.70565 0.631589 7.17972 0.376571 6.60226C0.121553 6.02479 -0.00632695 5.40709 0.000240728 4.78448C-0.00621184 4.1619 0.121746 3.54425 0.376806 2.96683C0.631865 2.38941 1.00903 1.86353 1.48675 1.41922C1.96447 0.974912 2.53339 0.62089 3.161 0.377376C3.78861 0.133862 4.46263 0.00562842 5.14454 0C6.29916 0 7.41886 0.361228 8.31758 1.02308C7.70546 1.47778 7.21201 2.0513 6.8731 2.70194C6.5342 3.35259 6.35835 4.06401 6.35835 4.78448C6.35835 5.50496 6.5342 6.21638 6.8731 6.86702C7.21201 7.51767 7.70546 8.09119 8.31758 8.54588Z" fill="#EA1D25"/>
<path d="M16.6498 4.78448C16.6562 5.40707 16.5282 6.02471 16.2732 6.60213C16.0181 7.17955 15.641 7.70544 15.1632 8.14975C14.6855 8.59405 14.1166 8.94808 13.489 9.19159C12.8614 9.4351 12.1874 9.56334 11.5055 9.56897C10.3506 9.56884 9.23052 9.2078 8.33154 8.54588C8.94352 8.0911 9.43684 7.51756 9.77565 6.86692C10.1145 6.21629 10.2903 5.50491 10.2903 4.78448C10.2903 4.06406 10.1145 3.35268 9.77565 2.70204C9.43684 2.05141 8.94352 1.47786 8.33154 1.02308C9.23025 0.36128 10.35 0.000245492 11.5046 0C12.1866 0.00541969 12.8608 0.133506 13.4885 0.376936C14.1163 0.620367 14.6854 0.974369 15.1632 1.41871C15.641 1.86305 16.0183 2.38901 16.2733 2.96653C16.5284 3.54405 16.6563 4.1618 16.6498 4.78448Z" fill="#F69E1E"/>
</svg>
