<svg width="35" height="9" viewBox="0 0 35 9" fill="none" xmlns="http://www.w3.org/2000/svg">
<g clip-path="url(#clip0_569_3492)">
<path fill-rule="evenodd" clip-rule="evenodd" d="M32.747 0.185C32.7553 0.133419 32.7817 0.0864789 32.8215 0.0525828C32.8612 0.0186868 32.9118 4.70413e-05 32.964 0L34.177 0C34.312 0 34.414 0.12 34.393 0.253L33.33 6.989C33.3167 7.07495 33.2731 7.15331 33.2071 7.20997C33.141 7.26662 33.057 7.29784 32.97 7.298H31.885C31.8534 7.29795 31.8222 7.29106 31.7935 7.2778C31.7648 7.26455 31.7393 7.24523 31.7188 7.2212C31.6983 7.19716 31.6832 7.16897 31.6746 7.13855C31.666 7.10814 31.6641 7.07622 31.669 7.045L32.747 0.185ZM31.263 2.43C31.2946 2.43007 31.3259 2.43697 31.3546 2.45022C31.3833 2.46347 31.4089 2.48276 31.4295 2.50677C31.4501 2.53079 31.4653 2.55896 31.474 2.58937C31.4827 2.61979 31.4847 2.65172 31.48 2.683L30.8 6.99C30.7864 7.07594 30.7426 7.1542 30.6764 7.21067C30.6102 7.26714 30.526 7.29811 30.439 7.298H29.306C29.2743 7.29797 29.243 7.29106 29.2142 7.27775C29.1854 7.26443 29.1599 7.24503 29.1394 7.22087C29.1188 7.19672 29.1038 7.1684 29.0952 7.13786C29.0867 7.10732 29.0849 7.0753 29.09 7.044L29.146 6.694C29.146 6.694 28.525 7.414 27.404 7.414C26.752 7.414 26.204 7.226 25.82 6.774C25.402 6.284 25.23 5.579 25.352 4.842C25.582 3.365 26.77 2.312 28.16 2.312C28.766 2.312 29.373 2.444 29.646 2.839L29.734 2.967L29.789 2.615C29.7973 2.56359 29.8235 2.51678 29.8631 2.48291C29.9026 2.44903 29.9529 2.43028 30.005 2.43H31.263ZM29.51 4.88C29.565 4.531 29.489 4.216 29.297 3.99C29.105 3.765 28.815 3.647 28.457 3.647C27.741 3.647 27.161 4.145 27.047 4.857C26.989 5.207 27.059 5.521 27.245 5.741C27.433 5.963 27.725 6.081 28.09 6.081C28.818 6.081 29.388 5.599 29.51 4.88ZM23.41 0C24.29 0 24.952 0.232 25.326 0.671C25.666 1.071 25.778 1.641 25.661 2.367C25.4 4.027 24.401 4.864 22.671 4.864H21.839C21.7522 4.86412 21.6682 4.8952 21.6022 4.95165C21.5363 5.0081 21.4926 5.08623 21.479 5.172L21.178 7.082C21.1685 7.14224 21.1378 7.1971 21.0914 7.2367C21.045 7.27629 20.986 7.29803 20.925 7.298H19.577C19.5454 7.29795 19.5142 7.29106 19.4855 7.2778C19.4568 7.26455 19.4313 7.24523 19.4108 7.2212C19.3903 7.19716 19.3752 7.16897 19.3666 7.13855C19.358 7.10814 19.3561 7.07622 19.361 7.045L20.423 0.308C20.4366 0.22223 20.4803 0.144105 20.5462 0.0876536C20.6122 0.0312024 20.6962 0.000124163 20.783 0L23.41 0ZM23.713 2.46C23.766 2.13 23.723 1.89 23.586 1.728C23.355 1.458 22.906 1.458 22.433 1.458H22.251C22.143 1.458 22.051 1.536 22.035 1.642L21.757 3.403H22.153C22.85 3.403 23.57 3.403 23.713 2.46Z" fill="#0079C1"/>
<path fill-rule="evenodd" clip-rule="evenodd" d="M19.2248 2.43C19.4008 2.43 19.5048 2.629 19.4038 2.774L15.1998 8.844C15.166 8.89215 15.1211 8.93146 15.0689 8.95861C15.0167 8.98576 14.9587 8.99996 14.8998 9H13.6358C13.5958 8.99979 13.5566 8.98863 13.5225 8.96773C13.4884 8.94682 13.4607 8.91697 13.4423 8.88142C13.424 8.84586 13.4157 8.80596 13.4185 8.76604C13.4212 8.72613 13.4348 8.68772 13.4578 8.655L14.7668 6.807L13.3748 2.72C13.3638 2.68704 13.3607 2.65193 13.3658 2.61754C13.3709 2.58316 13.3841 2.55048 13.4043 2.52218C13.4245 2.49388 13.4511 2.47078 13.482 2.45475C13.5129 2.43873 13.5471 2.43025 13.5818 2.43H14.8248C14.9848 2.43 15.1278 2.536 15.1748 2.69L15.9138 5.16L17.6578 2.59C17.7258 2.49 17.8378 2.43 17.9598 2.43H19.2248ZM12.5248 2.43C12.6598 2.43 12.7618 2.55 12.7408 2.683L12.0608 6.99C12.0473 7.07577 12.0036 7.15389 11.9376 7.21035C11.8716 7.2668 11.7877 7.29788 11.7008 7.298H10.5678C10.5361 7.29795 10.5047 7.29103 10.4759 7.27772C10.4471 7.26442 10.4215 7.24503 10.4009 7.2209C10.3803 7.19677 10.3652 7.16847 10.3565 7.13793C10.3479 7.1074 10.3459 7.07535 10.3508 7.044L10.4078 6.694C10.4078 6.694 9.78683 7.414 8.66583 7.414C8.01283 7.414 7.46583 7.226 7.08183 6.774C6.66383 6.284 6.49183 5.579 6.61183 4.842C6.84383 3.365 8.03183 2.312 9.42083 2.312C10.0278 2.312 10.6348 2.444 10.9078 2.839L10.9948 2.967L11.0508 2.615C11.0587 2.56341 11.0849 2.51637 11.1245 2.48243C11.1641 2.44848 11.2146 2.42988 11.2668 2.43H12.5248ZM10.7718 4.88C10.8268 4.531 10.7508 4.216 10.5578 3.99C10.3668 3.765 10.0768 3.647 9.71983 3.647C9.00283 3.647 8.42283 4.145 8.30983 4.857C8.24983 5.207 8.31983 5.521 8.50683 5.741C8.69483 5.963 8.98683 6.081 9.35183 6.081C10.0798 6.081 10.6498 5.599 10.7718 4.88ZM4.67183 0C5.55183 0 6.21383 0.232 6.58783 0.671C6.92683 1.071 7.03983 1.641 6.92283 2.367C6.66183 4.027 5.66283 4.864 3.93183 4.864H3.09983C3.01299 4.86412 2.92905 4.8952 2.86306 4.95165C2.79708 5.0081 2.75339 5.08623 2.73983 5.172L2.45383 6.99C2.44024 7.07594 2.3964 7.1542 2.33021 7.21067C2.26402 7.26714 2.17983 7.29811 2.09283 7.298H0.838827C0.807168 7.29812 0.775863 7.29134 0.747089 7.27814C0.718314 7.26494 0.69276 7.24563 0.672204 7.22155C0.651647 7.19747 0.636582 7.16921 0.628055 7.13872C0.619528 7.10823 0.617744 7.07625 0.622827 7.045L1.68483 0.308C1.69839 0.22223 1.74208 0.144105 1.80806 0.0876536C1.87405 0.0312024 1.95799 0.000124163 2.04483 0L4.67183 0ZM4.97583 2.46C5.02783 2.13 4.98583 1.89 4.84883 1.728C4.61783 1.458 4.16883 1.458 3.69583 1.458H3.51383C3.40583 1.458 3.31383 1.536 3.29783 1.642L3.01783 3.403H3.41583C4.11183 3.403 4.83283 3.403 4.97583 2.46Z" fill="#00457C"/>
</g>
<defs>
<clipPath id="clip0_569_3492">
<rect width="35" height="9" fill="white"/>
</clipPath>
</defs>
</svg>
